<svg width="95" height="84" viewBox="0 0 95 84" fill="none" xmlns="http://www.w3.org/2000/svg">
<path fillRule="evenodd" clipRule="evenodd" d="M1 5L12 3H84L94 5V79C94 81.2091 92.2091 83 90 83H5C2.79086 83 1 81.2091 1 79V5Z" fill="#116F94"/>
<path d="M12 3V2.5H11.9549L11.9106 2.50807L12 3ZM1 5L0.910557 4.50807L0.5 4.58271V5H1ZM84 3L84.0981 2.50971L84.0495 2.5H84V3ZM94 5H94.5V4.5901L94.0981 4.50971L94 5ZM11.9106 2.50807L0.910557 4.50807L1.08944 5.49193L12.0894 3.49193L11.9106 2.50807ZM84 2.5H12V3.5H84V2.5ZM94.0981 4.50971L84.0981 2.50971L83.9019 3.49029L93.9019 5.49029L94.0981 4.50971ZM93.5 5V79H94.5V5H93.5ZM93.5 79C93.5 80.933 91.933 82.5 90 82.5V83.5C92.4853 83.5 94.5 81.4853 94.5 79H93.5ZM90 82.5H5V83.5H90V82.5ZM5 82.5C3.06701 82.5 1.5 80.933 1.5 79H0.5C0.5 81.4853 2.51472 83.5 5 83.5V82.5ZM1.5 79V5H0.5V79H1.5Z" fill="black"/>
<rect x="11.5" y="0.5" width="73" height="75" rx="3.5" fill="#5CCAF5" stroke="black"/>
<path d="M2 82L13 74" stroke="black"/>
<path d="M94 82L83 74" stroke="black"/>
</svg>
