<svg width="95" height="123" viewBox="0 0 95 123" fill="none" xmlns="http://www.w3.org/2000/svg">
<path fill-rule="evenodd" clip-rule="evenodd" d="M1 44L12 26H84L94 44V118C94 120.209 92.2091 122 90 122H5C2.79086 122 1 120.209 1 118V44Z" fill="#BA861F"/>
<path d="M12 26V25.5H11.7196L11.5734 25.7393L12 26ZM1 44L0.573359 43.7393L0.5 43.8593V44H1ZM84 26L84.4371 25.7572L84.2942 25.5H84V26ZM94 44H94.5V43.8704L94.4371 43.7572L94 44ZM11.5734 25.7393L0.573359 43.7393L1.42664 44.2607L12.4266 26.2607L11.5734 25.7393ZM84 25.5H12V26.5H84V25.5ZM94.4371 43.7572L84.4371 25.7572L83.5629 26.2428L93.5629 44.2428L94.4371 43.7572ZM93.5 44V118H94.5V44H93.5ZM93.5 118C93.5 119.933 91.933 121.5 90 121.5V122.5C92.4853 122.5 94.5 120.485 94.5 118H93.5ZM90 121.5H5V122.5H90V121.5ZM5 121.5C3.06701 121.5 1.5 119.933 1.5 118H0.5C0.5 120.485 2.51472 122.5 5 122.5V121.5ZM1.5 118V44H0.5V118H1.5Z" fill="black"/>
<rect x="11.5" y="24.5" width="73" height="74" rx="3.5" fill="#FFEB34" stroke="black"/>
<path d="M2 120.5L13 97.5" stroke="black"/>
<path d="M94 121L83 98" stroke="black"/>
<path fill-rule="evenodd" clip-rule="evenodd" d="M41.8771 0.33259C32.9202 1.77106 25.4756 5.53791 19.0821 11.8675C13.9617 16.9364 10.5397 22.603 8.59677 29.2312C6.07136 37.8458 6.56213 47.6446 9.92283 55.7126C10.399 56.856 10.7549 57.8101 10.7134 57.8332C9.56694 58.4676 8.90887 59.1052 8.2438 60.2269C7.50894 61.4657 7.41844 61.9165 7.32997 64.781C7.20531 68.8201 7.7501 71.4627 9.37892 74.7177C10.8019 77.5611 13.3662 80.3502 15.4744 81.3473C17.3303 82.2253 19.9684 82.2164 21.324 81.3273C22.3023 80.6857 23.2899 78.9927 23.6401 77.677C23.8058 77.0541 23.8287 76.5158 23.6401 76.2137C23.4267 75.8717 23.3034 75.866 22.9222 76.1793C22.669 76.3871 22.462 76.8067 22.462 77.1114C22.462 78.0851 21.317 79.9282 20.43 80.3822C17.3767 81.9456 13.0415 79.2045 10.5018 74.1049C8.98127 71.052 8.36408 68.1684 8.50627 64.781C8.62305 61.9957 9.3687 60.0798 10.6615 59.2436C11.2366 58.8714 11.3511 58.9882 12.8234 61.4503C14.5422 64.325 15.2192 65.077 15.8665 64.831C16.206 64.7021 16.0121 64.2423 14.9678 62.7007C12.1458 58.535 10.1471 53.8643 8.98332 48.7168C8.08468 44.7416 8.00994 36.9594 8.83355 33.133C10.5254 25.2739 14.0087 18.7162 19.4289 13.1866C35.1163 -2.81745 60.5284 -2.93768 76.4367 12.917C81.7024 18.165 85.4336 25.0372 87.1389 32.6278C87.8875 35.9602 88.037 43.1581 87.4324 46.7575C86.5215 52.1799 84.3549 57.7373 81.3965 62.2388C80.2786 63.94 80.1501 64.6365 80.9544 64.6365C81.3182 64.6365 83.2711 61.8625 84.2098 60.0122C84.8886 58.6743 84.8188 58.7107 85.6576 59.2546C87.6145 60.524 88.4037 65.0498 87.4531 69.5499C85.9122 76.8446 79.9209 82.4519 75.8782 80.3822C74.9913 79.9282 73.8462 78.0851 73.8462 77.1114C73.8462 76.8067 73.6392 76.3871 73.3861 76.1793C73.0048 75.866 72.8816 75.8717 72.6682 76.2137C72.4795 76.5158 72.5024 77.0542 72.6682 77.677C73.0183 78.9927 74.006 80.6857 74.9843 81.3273C76.3398 82.2164 78.9779 82.2253 80.8339 81.3473C82.9421 80.3502 85.5063 77.5611 86.9293 74.7177C88.5581 71.4627 89.1029 68.8201 88.9783 64.781C88.8898 61.9165 88.7993 61.4657 88.0645 60.2269C87.616 59.4705 86.8937 58.6321 86.4599 58.3633C86.0257 58.0948 85.6246 57.8445 85.5685 57.8069C85.5125 57.7696 85.8765 56.6872 86.3775 55.4014C88.1815 50.7704 88.7821 47.6489 88.9482 42.0413C89.0673 38.0152 88.9932 36.2992 88.5982 33.9486C85.8106 17.3526 73.2477 4.36128 56.4749 0.72942C52.9066 -0.0431382 45.4746 -0.245167 41.8771 0.33259ZM22.2822 42.3566C20.4318 43.1884 19.4438 44.6786 19.3042 46.8477C19.0794 50.3406 21.2142 52.6421 24.6783 52.6421C26.2312 52.6421 26.6814 52.5146 27.7391 51.775C29.3455 50.6516 30.1845 49.0469 30.1568 47.1506C30.0975 43.0858 26.0887 40.6453 22.2822 42.3566ZM69.4669 42.1277C67.5636 42.8768 66.1833 44.9679 66.1514 47.1506C66.1237 49.0469 66.9628 50.6516 68.5691 51.775C69.6269 52.5146 70.0771 52.6421 71.63 52.6421C75.094 52.6421 77.2288 50.3406 77.004 46.8477C76.8645 44.6786 75.8765 43.1884 74.0261 42.3566C72.7269 41.7725 70.6359 41.6676 69.4669 42.1277ZM43.4828 52.4935C40.4585 52.8097 35.2809 53.8453 33.3257 54.5256C29.7198 55.7803 26.8399 58.2046 26.8425 59.9833C26.8437 60.9373 27.7616 62.4394 28.7251 63.0645C29.1665 63.3507 29.469 63.818 29.469 64.2137C29.469 65.144 31.1279 67.21 32.7345 68.2808C34.5779 69.5092 38.5497 71.1173 41.327 71.7598C44.5499 72.5055 51.7583 72.5055 54.9812 71.7598C57.7586 71.1173 61.7303 69.5092 63.5738 68.2808C65.1094 67.2574 66.8393 65.1559 66.8393 64.3134C66.8393 64.0015 67.3549 63.2608 67.9849 62.6674C69.9156 60.8492 69.9261 59.3107 68.0208 57.4245C66.3263 55.747 63.1679 54.3696 59.3944 53.662C57.6281 53.3311 55.7888 52.9395 55.307 52.7918C54.0867 52.4178 46.1285 52.2172 43.4828 52.4935ZM55.3651 54.0953C61.4685 54.8777 65.7228 56.4474 67.5429 58.5887C68.459 59.6665 68.4915 60.2703 67.6874 61.2818C66.4965 62.7807 62.2667 64.2888 57.029 65.0819C52.7048 65.7365 43.6034 65.7365 39.2793 65.0819C35.9816 64.5825 32.1494 63.5183 30.2996 62.5882C29.085 61.9775 28.0092 60.7596 28.0092 59.9954C28.0092 58.5043 31.5635 56.1309 35.3081 55.1213C40.5285 53.7141 49.0066 53.2802 55.3651 54.0953ZM35.5078 65.6108C44.6676 67.6588 57.5679 67.2077 64.2847 64.6045C65.1039 64.2868 65.6715 64.1911 65.6715 64.3706C65.6715 64.5377 64.9816 65.3536 64.1387 66.1843C62.4191 67.8779 59.1314 69.4488 55.2469 70.4323C52.0657 71.2375 44.2425 71.2375 41.0613 70.4323C37.1769 69.4488 33.8892 67.8779 32.1696 66.1843C31.3267 65.3536 30.6368 64.5377 30.6368 64.3706C30.6368 64.1911 31.2043 64.2868 32.0236 64.6045C32.7865 64.9001 34.3543 65.353 35.5078 65.6108Z" fill="black"/>
<path fill-rule="evenodd" clip-rule="evenodd" d="M22.9222 76.1793C23.3034 75.866 23.4267 75.8717 23.6401 76.2137C23.8287 76.5158 23.8058 77.0541 23.6401 77.677H72.6682C72.5024 77.0542 72.4795 76.5158 72.6682 76.2137C72.8816 75.8717 73.0048 75.866 73.3861 76.1793C73.6392 76.3871 73.8462 76.8067 73.8462 77.1114C73.8462 78.0851 74.9913 79.9282 75.8782 80.3822C79.9209 82.4519 85.9122 76.8446 87.4531 69.5499C88.4037 65.0498 87.6145 60.524 85.6576 59.2546C84.8188 58.7107 84.8886 58.6743 84.2098 60.0122C83.2711 61.8625 81.3182 64.6365 80.9544 64.6365C80.1501 64.6365 80.2786 63.94 81.3965 62.2388C84.3549 57.7373 86.5215 52.1799 87.4324 46.7575C88.037 43.1581 87.8875 35.9602 87.1389 32.6278C85.4336 25.0372 81.7024 18.165 76.4367 12.917C60.5284 -2.93768 35.1163 -2.81745 19.4289 13.1866C14.0087 18.7162 10.5254 25.2739 8.83355 33.133C8.00994 36.9594 8.08468 44.7416 8.98332 48.7168C10.1471 53.8643 12.1458 58.535 14.9678 62.7007C16.0121 64.2423 16.206 64.7021 15.8665 64.831C15.2192 65.077 14.5422 64.325 12.8234 61.4503C11.3511 58.9882 11.2366 58.8714 10.6615 59.2436C9.3687 60.0798 8.62305 61.9957 8.50627 64.781C8.36408 68.1684 8.98127 71.052 10.5018 74.1049C13.0415 79.2045 17.3767 81.9456 20.43 80.3822C21.317 79.9282 22.462 78.0851 22.462 77.1114C22.462 76.8067 22.669 76.3871 22.9222 76.1793ZM19.3042 46.8477C19.4438 44.6786 20.4318 43.1884 22.2822 42.3566C26.0887 40.6453 30.0975 43.0858 30.1568 47.1506C30.1845 49.0469 29.3455 50.6516 27.7391 51.775C26.6814 52.5146 26.2312 52.6421 24.6783 52.6421C21.2142 52.6421 19.0794 50.3406 19.3042 46.8477ZM66.1514 47.1506C66.1833 44.9679 67.5636 42.8768 69.4669 42.1277C70.6359 41.6676 72.7269 41.7725 74.0261 42.3566C75.8765 43.1884 76.8645 44.6786 77.004 46.8477C77.2288 50.3406 75.094 52.6421 71.63 52.6421C70.0771 52.6421 69.6269 52.5146 68.5691 51.775C66.9628 50.6516 66.1237 49.0469 66.1514 47.1506ZM33.3257 54.5256C35.2809 53.8453 40.4585 52.8097 43.4828 52.4935C46.1285 52.2172 54.0867 52.4178 55.307 52.7918C55.7888 52.9395 57.6281 53.3311 59.3944 53.662C63.1679 54.3696 66.3263 55.747 68.0208 57.4245C69.9261 59.3107 69.9156 60.8492 67.9849 62.6674C67.3549 63.2608 66.8393 64.0015 66.8393 64.3134C66.8393 65.1559 65.1094 67.2574 63.5738 68.2808C61.7303 69.5092 57.7586 71.1173 54.9812 71.7598C51.7583 72.5055 44.5499 72.5055 41.327 71.7598C38.5497 71.1173 34.5779 69.5092 32.7345 68.2808C31.1279 67.21 29.469 65.144 29.469 64.2137C29.469 63.818 29.1665 63.3507 28.7251 63.0645C27.7616 62.4394 26.8437 60.9373 26.8425 59.9833C26.8399 58.2046 29.7198 55.7803 33.3257 54.5256Z" fill="#FFEB34"/>
<path d="M55.3651 54.0953C61.4685 54.8777 65.7228 56.4474 67.5429 58.5887C68.459 59.6665 68.4915 60.2703 67.6874 61.2818C66.4965 62.7807 62.2667 64.2888 57.029 65.0819C52.7048 65.7365 43.6034 65.7365 39.2793 65.0819C35.9816 64.5825 32.1494 63.5183 30.2996 62.5882C29.085 61.9775 28.0092 60.7596 28.0092 59.9954C28.0092 58.5043 31.5635 56.1309 35.3081 55.1213C40.5285 53.7141 49.0066 53.2802 55.3651 54.0953Z" fill="#EE903D"/>
<path d="M35.5078 65.6108C44.6676 67.6588 57.5679 67.2077 64.2847 64.6045C65.1039 64.2868 65.6715 64.1911 65.6715 64.3706C65.6715 64.5377 64.9816 65.3536 64.1387 66.1843C62.4191 67.8779 59.1314 69.4488 55.2469 70.4323C52.0657 71.2375 44.2425 71.2375 41.0613 70.4323C37.1769 69.4488 33.8892 67.8779 32.1696 66.1843C31.3267 65.3536 30.6368 64.5377 30.6368 64.3706C30.6368 64.1911 31.2043 64.2868 32.0236 64.6045C32.7865 64.9001 34.3543 65.353 35.5078 65.6108Z" fill="#EE903D"/>
</svg>
