<svg width="95" height="102" viewBox="0 0 95 102" fill="none" xmlns="http://www.w3.org/2000/svg">
<path fill-rule="evenodd" clipRule="evenodd" d="M1 23L12 21H84L94 23V97C94 99.2091 92.2091 101 90 101H5C2.79086 101 1 99.2091 1 97V23Z" fill="#BA861F"/>
<path d="M12 21V20.5H11.9549L11.9106 20.5081L12 21ZM1 23L0.910557 22.5081L0.5 22.5827V23H1ZM84 21L84.0981 20.5097L84.0495 20.5H84V21ZM94 23H94.5V22.5901L94.0981 22.5097L94 23ZM11.9106 20.5081L0.910557 22.5081L1.08944 23.4919L12.0894 21.4919L11.9106 20.5081ZM84 20.5H12V21.5H84V20.5ZM94.0981 22.5097L84.0981 20.5097L83.9019 21.4903L93.9019 23.4903L94.0981 22.5097ZM93.5 23V97H94.5V23H93.5ZM93.5 97C93.5 98.933 91.933 100.5 90 100.5V101.5C92.4853 101.5 94.5 99.4853 94.5 97H93.5ZM90 100.5H5V101.5H90V100.5ZM5 100.5C3.06701 100.5 1.5 98.933 1.5 97H0.5C0.5 99.4853 2.51472 101.5 5 101.5V100.5ZM1.5 97V23H0.5V97H1.5Z" fill="black"/>
<rect x="11.5" y="18.5" width="73" height="75" rx="3.5" fill="#FFEB34" stroke="black"/>
<path d="M2 100L13 92" stroke="black"/>
<path d="M94 100L83 92" stroke="black"/>
<path fill-rule="evenodd" clipRule="evenodd" d="M29.0536 0.363295C26.3141 0.875941 22.5814 2.32512 19.8004 3.95556C17.5591 5.27017 15.6511 7.39856 13.0518 11.485C6.31681 22.0734 5.09758 36.2338 9.92603 47.7907C10.4022 48.9307 10.7581 49.8819 10.7167 49.905C9.57013 50.5375 8.91205 51.1732 8.24696 52.2915C7.5121 53.5266 7.42159 53.9762 7.33313 56.8322C7.20846 60.8593 7.75326 63.494 9.38211 66.7393C10.8051 69.5743 13.3694 72.355 15.4777 73.3492C17.3337 74.2247 19.9718 74.2157 21.3274 73.3293C22.3057 72.6896 23.2934 71.0016 23.6435 69.6898C23.8093 69.0688 23.8322 68.5321 23.6435 68.2308C23.4301 67.8899 23.3069 67.8842 22.9256 68.1965C22.6725 68.4037 22.4655 68.8221 22.4655 69.1259C22.4655 70.0967 21.3204 71.9343 20.4334 72.387C17.3801 73.9457 13.0448 71.2128 10.505 66.1284C8.98446 63.0845 8.36725 60.2095 8.50944 56.8322C8.62622 54.0551 9.37189 52.1449 10.6647 51.3112C11.2399 50.94 11.3543 51.0565 12.8267 53.5113C14.5454 56.3774 15.2225 57.1272 15.8698 56.882C16.2093 56.7535 16.0155 56.295 14.9711 54.7579C12.149 50.6046 10.1503 45.9479 8.9865 40.8156C8.08784 36.8522 8.0131 29.0931 8.83673 25.2781C9.99172 19.9291 11.9254 15.326 14.8885 10.8721C17.3205 7.21673 19.1409 5.5154 22.1852 4.05268C27.6075 1.44737 30.8339 0.870178 37.9321 1.23471C40.5857 1.3713 45.1873 1.48282 48.158 1.48282C51.1287 1.48282 55.7303 1.3713 58.3839 1.23471C65.4876 0.869601 68.769 1.45775 74.0912 4.04951C76.9217 5.42809 78.6793 7.12077 81.269 10.962C83.9816 14.986 86.0154 19.7678 87.1436 24.7744C87.8922 28.0969 88.0416 35.2734 87.437 38.8622C86.5261 44.2684 84.3594 49.8093 81.401 54.2975C80.2831 55.9936 80.1546 56.6881 80.9589 56.6881C81.3227 56.6881 83.2757 53.9223 84.2143 52.0774C84.8931 50.7435 84.8233 50.7798 85.6621 51.3221C87.6192 52.5878 88.4083 57.1002 87.4577 61.5869C85.9167 68.8599 79.9254 74.4506 75.8826 72.387C74.9956 71.9343 73.8506 70.0967 73.8506 69.1259C73.8506 68.8221 73.6436 68.4037 73.3904 68.1965C73.0091 67.8842 72.8859 67.8899 72.6725 68.2308C72.5441 68.4359 72.5137 68.7502 72.5597 69.1259C72.724 70.4676 73.8625 72.5929 74.9886 73.3293C76.3442 74.2157 78.9824 74.2247 80.8384 73.3492C82.9466 72.355 85.5109 69.5743 86.9339 66.7393C88.5628 63.494 89.1076 60.8593 88.9829 56.8322C88.8944 53.9762 88.8039 53.5266 88.0691 52.2915C87.6206 51.5374 86.8983 50.7014 86.4645 50.4335C86.0303 50.1657 85.6292 49.9162 85.5731 49.8787C85.517 49.8416 85.8811 48.7624 86.3821 47.4803C88.1862 42.8631 88.7867 39.7509 88.9528 34.1599C89.1254 28.3493 88.7056 24.9841 87.2458 20.4703C85.6662 15.5865 83.9016 12.2648 80.5006 7.77347C78.2434 4.79297 76.5778 3.61294 72.06 1.79519C68.0505 0.181753 65.0751 -0.190844 58.3766 0.081184C51.5293 0.359263 45.7058 0.369635 37.5014 0.118067C32.6374 -0.0312031 30.8915 0.0195134 29.0536 0.363295ZM38.5233 25.8123C38.5233 27.4768 35.1558 28.9182 31.8754 28.6582C30.8453 28.5767 29.857 28.3663 29.6792 28.1908C29.1309 27.6497 28.5966 27.8367 28.5966 28.5695C28.5966 29.5328 30.135 30.0276 33.122 30.025C35.9208 30.0224 37.9803 29.1821 39.0339 27.6128C39.8757 26.359 39.9095 25.2781 39.1072 25.2781C38.7332 25.2781 38.5233 25.4703 38.5233 25.8123ZM56.6249 25.9558C56.6249 27.0762 57.8383 28.5424 59.3988 29.3075C60.5845 29.8887 61.2963 30.0233 63.194 30.025C66.1811 30.0276 67.7194 29.5328 67.7194 28.5695C67.7194 27.8367 67.1851 27.6497 66.6368 28.1908C66.459 28.3663 65.4707 28.5767 64.4407 28.6582C61.1602 28.9182 57.7927 27.4768 57.7927 25.8123C57.7927 25.4703 57.5828 25.2781 57.2088 25.2781C56.7904 25.2781 56.6249 25.4703 56.6249 25.9558ZM24.0712 34.0685C22.0544 34.7737 20.8857 36.8563 21.5794 38.5092C21.7645 38.9501 22.4666 39.6224 23.1396 40.003C24.2073 40.6067 24.7349 40.6949 27.2828 40.6949C29.669 40.6949 30.4126 40.586 31.3536 40.0987C33.8578 38.8022 34.3754 36.7897 32.6143 35.1967C32.0406 34.6777 31.0663 34.1149 30.4488 33.9458C28.8801 33.5158 25.4639 33.5815 24.0712 34.0685ZM65.5525 34.0628C62.0247 35.3033 61.7199 38.4198 64.9624 40.0987C65.9034 40.586 66.647 40.6949 69.0332 40.6949C71.5812 40.6949 72.1087 40.6067 73.1764 40.003C73.8494 39.6224 74.5516 38.9501 74.7367 38.5092C75.4605 36.7848 74.0812 34.5414 71.9359 33.9536C70.3491 33.5187 66.9334 33.5772 65.5525 34.0628ZM43.4866 44.5811C40.4622 44.8964 35.2846 45.9288 33.3293 46.6072C29.7233 47.8581 26.8434 50.2752 26.846 52.0486C26.8472 52.9998 27.7651 54.4974 28.7286 55.1207C29.17 55.406 29.4725 55.872 29.4725 56.2665C29.4725 57.1941 31.1314 59.2539 32.7381 60.3216C34.5815 61.5463 38.5534 63.1496 41.3308 63.7902C44.5538 64.5337 51.7623 64.5337 54.9852 63.7902C57.7627 63.1496 61.7345 61.5463 63.5779 60.3216C65.1136 59.3012 66.8435 57.2059 66.8435 56.3659C66.8435 56.055 67.3591 55.3164 67.9892 54.7248C69.9199 52.912 69.9304 51.3781 68.0251 49.4975C66.3305 47.825 63.1721 46.4516 59.3985 45.7461C57.6321 45.4162 55.7928 45.0257 55.3111 44.8785C54.0907 44.5056 46.1324 44.3056 43.4866 44.5811ZM55.3692 46.1781C61.4726 46.9582 65.7271 48.5232 67.5471 50.6582C68.4633 51.7328 68.4957 52.3348 67.6917 53.3433C66.5008 54.8378 62.2708 56.3414 57.033 57.1321C52.7088 57.7848 43.6072 57.7848 39.283 57.1321C35.9853 56.6342 32.153 55.5732 30.3031 54.6458C29.0886 54.037 28.0127 52.8226 28.0127 52.0607C28.0127 50.5741 31.567 48.2077 35.3117 47.2011C40.5323 45.798 49.0105 45.3655 55.3692 46.1781ZM35.5114 57.6595C44.6714 59.7014 57.572 59.2516 64.2889 56.6561C65.1081 56.3394 65.6757 56.244 65.6757 56.423C65.6757 56.5895 64.9858 57.403 64.1429 58.2312C62.4232 59.9198 59.1355 61.486 55.2509 62.4667C52.0697 63.2695 44.2463 63.2695 41.0651 62.4667C37.1806 61.486 33.8928 59.9198 32.1732 58.2312C31.3303 57.403 30.6404 56.5895 30.6404 56.423C30.6404 56.244 31.2079 56.3394 32.0272 56.6561C32.7901 56.9509 34.3579 57.4024 35.5114 57.6595Z" fill="black"/>
<path fill-rule="evenodd" clipRule="evenodd" d="M22.9256 68.1965C23.3069 67.8842 23.4301 67.8899 23.6435 68.2308C23.8322 68.5321 23.8093 69.0688 23.6435 69.6898L72.5597 69.1259C72.5137 68.7502 72.5441 68.4359 72.6725 68.2308C72.8859 67.8899 73.0091 67.8842 73.3904 68.1965C73.6436 68.4037 73.8506 68.8221 73.8506 69.1259C73.8506 70.0967 74.9956 71.9343 75.8826 72.387C79.9254 74.4506 85.9167 68.8599 87.4577 61.5869C88.4083 57.1002 87.6192 52.5878 85.6621 51.3221C84.8233 50.7798 84.8931 50.7435 84.2143 52.0774C83.2757 53.9223 81.3227 56.6881 80.9589 56.6881C80.1546 56.6881 80.2831 55.9936 81.401 54.2975C84.3594 49.8093 86.5261 44.2684 87.437 38.8622C88.0416 35.2734 87.8922 28.0969 87.1436 24.7744C86.0154 19.7678 83.9816 14.986 81.269 10.962C78.6793 7.12077 76.9217 5.42809 74.0912 4.04951C68.769 1.45775 65.4876 0.869601 58.3839 1.23471C55.7303 1.3713 51.1287 1.48282 48.158 1.48282C45.1873 1.48282 40.5857 1.3713 37.9321 1.23471C30.8339 0.870178 27.6075 1.44737 22.1852 4.05268C19.1409 5.5154 17.3205 7.21673 14.8885 10.8721C11.9254 15.326 9.99172 19.9291 8.83673 25.2781C8.0131 29.0931 8.08784 36.8522 8.9865 40.8156C10.1503 45.9479 12.149 50.6046 14.9711 54.7579C16.0155 56.295 16.2093 56.7535 15.8698 56.882C15.2225 57.1272 14.5454 56.3774 12.8267 53.5113C11.3543 51.0565 11.2399 50.94 10.6647 51.3112C9.37189 52.1449 8.62622 54.0551 8.50944 56.8322C8.36725 60.2095 8.98446 63.0845 10.505 66.1284C13.0448 71.2128 17.3801 73.9457 20.4334 72.387C21.3204 71.9343 22.4655 70.0967 22.4655 69.1259C22.4655 68.8221 22.6725 68.4037 22.9256 68.1965ZM31.8754 28.6582C35.1558 28.9182 38.5233 27.4768 38.5233 25.8123C38.5233 25.4703 38.7332 25.2781 39.1072 25.2781C39.9095 25.2781 39.8757 26.359 39.0339 27.6128C37.9803 29.1821 35.9208 30.0224 33.122 30.025C30.135 30.0276 28.5966 29.5328 28.5966 28.5695C28.5966 27.8367 29.1309 27.6497 29.6792 28.1908C29.857 28.3663 30.8453 28.5767 31.8754 28.6582ZM59.3988 29.3075C57.8383 28.5424 56.6249 27.0762 56.6249 25.9558C56.6249 25.4703 56.7904 25.2781 57.2088 25.2781C57.5828 25.2781 57.7927 25.4703 57.7927 25.8123C57.7927 27.4768 61.1602 28.9182 64.4407 28.6582C65.4707 28.5767 66.459 28.3663 66.6368 28.1908C67.1851 27.6497 67.7194 27.8367 67.7194 28.5695C67.7194 29.5328 66.1811 30.0276 63.194 30.025C61.2963 30.0233 60.5845 29.8887 59.3988 29.3075ZM21.5794 38.5092C20.8857 36.8563 22.0544 34.7737 24.0712 34.0685C25.4639 33.5815 28.8801 33.5158 30.4488 33.9458C31.0663 34.1149 32.0406 34.6777 32.6143 35.1967C34.3754 36.7897 33.8578 38.8022 31.3536 40.0987C30.4126 40.586 29.669 40.6949 27.2828 40.6949C24.7349 40.6949 24.2073 40.6067 23.1396 40.003C22.4666 39.6224 21.7645 38.9501 21.5794 38.5092ZM64.9624 40.0987C61.7199 38.4198 62.0247 35.3033 65.5525 34.0628C66.9334 33.5772 70.3491 33.5187 71.9359 33.9536C74.0812 34.5414 75.4605 36.7848 74.7367 38.5092C74.5516 38.9501 73.8494 39.6224 73.1764 40.003C72.1087 40.6067 71.5812 40.6949 69.0332 40.6949C66.647 40.6949 65.9034 40.586 64.9624 40.0987ZM33.3293 46.6072C35.2846 45.9288 40.4622 44.8964 43.4866 44.5811C46.1324 44.3056 54.0907 44.5056 55.3111 44.8785C55.7928 45.0257 57.6321 45.4162 59.3985 45.7461C63.1721 46.4516 66.3305 47.825 68.0251 49.4975C69.9304 51.3781 69.9199 52.912 67.9892 54.7248C67.3591 55.3164 66.8435 56.055 66.8435 56.3659C66.8435 57.2059 65.1136 59.3012 63.5779 60.3216C61.7345 61.5463 57.7627 63.1496 54.9852 63.7902C51.7623 64.5337 44.5538 64.5337 41.3308 63.7902C38.5534 63.1496 34.5815 61.5463 32.7381 60.3216C31.1314 59.2539 29.4725 57.1941 29.4725 56.2665C29.4725 55.872 29.17 55.406 28.7286 55.1207C27.7651 54.4974 26.8472 52.9998 26.846 52.0486C26.8434 50.2752 29.7233 47.8581 33.3293 46.6072Z" fill="#FFEB34"/>
<path d="M55.3692 46.1781C61.4726 46.9582 65.7271 48.5232 67.5471 50.6582C68.4633 51.7328 68.4957 52.3348 67.6917 53.3433C66.5008 54.8378 62.2708 56.3414 57.033 57.1321C52.7088 57.7848 43.6072 57.7848 39.283 57.1321C35.9853 56.6342 32.153 55.5732 30.3031 54.6458C29.0886 54.037 28.0127 52.8226 28.0127 52.0607C28.0127 50.5741 31.567 48.2077 35.3117 47.2011C40.5323 45.798 49.0105 45.3655 55.3692 46.1781Z" fill="#EE903D"/>
<path d="M35.5114 57.6595C44.6714 59.7014 57.572 59.2516 64.2889 56.6561C65.1081 56.3394 65.6757 56.244 65.6757 56.423C65.6757 56.5895 64.9858 57.403 64.1429 58.2312C62.4232 59.9198 59.1355 61.486 55.2509 62.4667C52.0697 63.2695 44.2463 63.2695 41.0651 62.4667C37.1806 61.486 33.8928 59.9198 32.1732 58.2312C31.3303 57.403 30.6404 56.5895 30.6404 56.423C30.6404 56.244 31.2079 56.3394 32.0272 56.6561C32.7901 56.9509 34.3579 57.4024 35.5114 57.6595Z" fill="#EE903D"/>
</svg>
