<svg width="95" height="99" viewBox="0 0 95 99" fill="none" xmlns="http://www.w3.org/2000/svg">
<path fillRule="evenodd" clipRule="evenodd" d="M1 20L12 2H84L94 20V94C94 96.2091 92.2091 98 90 98H5C2.79086 98 1 96.2091 1 94V20Z" fill="#116F94"/>
<path d="M12 2V1.5H11.7196L11.5734 1.73928L12 2ZM1 20L0.573359 19.7393L0.5 19.8593V20H1ZM84 2L84.4371 1.75718L84.2942 1.5H84V2ZM94 20H94.5V19.8704L94.4371 19.7572L94 20ZM11.5734 1.73928L0.573359 19.7393L1.42664 20.2607L12.4266 2.26072L11.5734 1.73928ZM84 1.5H12V2.5H84V1.5ZM94.4371 19.7572L84.4371 1.75718L83.5629 2.24282L93.5629 20.2428L94.4371 19.7572ZM93.5 20V94H94.5V20H93.5ZM93.5 94C93.5 95.933 91.933 97.5 90 97.5V98.5C92.4853 98.5 94.5 96.4853 94.5 94H93.5ZM90 97.5H5V98.5H90V97.5ZM5 97.5C3.067 97.5 1.5 95.933 1.5 94H0.5C0.5 96.4853 2.51472 98.5 5 98.5V97.5ZM1.5 94V20H0.5V94H1.5Z" fill="black"/>
<rect x="11.5" y="0.5" width="73" height="74" rx="3.5" fill="#5CCAF5" stroke="black"/>
<path d="M2 96.5L13 73.5" stroke="black"/>
<path d="M94 97L83 74" stroke="black"/>
</svg>
